#!OML:ASF I:\Random Stuff\random\construction\7_22_03\Session 2\subj1.ASF
:FULLY-SPECIFIED
:DEGREES
2048
root 4.36424 17.7732 0.885311 45.716 95.3557 37.4627
lowerback -0.77513 2.4764 -3.4151
upperback 0.580425 3.33705 1.01126
thorax 0.774847 1.6463 2.99023
lowerneck -20.1035 -3.16075 3.52062
upperneck 46.1593 -9.36134 12.7279
head 25.3909 -0.0318854 4.96371
rclavicle 5.36719e-014 3.57812e-015
rhumerus 20.1783 48.8028 -70.4883
rradius 109.248
rwrist -34.0263
rhand -17.22 35.5191
rfingers 7.12502
rthumb 9.02302 5.73207
lclavicle 5.36719e-014 3.57812e-015
lhumerus -5.47922 -24.8168 55.1914
lradius 131.131
lwrist 30.9714
lhand -17.4186 33.4027
lfingers 7.12502
lthumb 8.83142 783.198
rfemur -6.44121 34.2581 22.4668
rtibia 6.07063
rfoot -4.14869 -57.1132
rtoes 5.66247
lfemur -19.8693 -26.3927 -7.33016
ltibia 21.3231
lfoot -11.6635 24.7149
ltoes -26.4358
2049
root 4.35238 17.7737 0.903493 46.7799 95.3948 38.594
lowerback -0.693494 2.49463 -3.62233
upperback 0.643066 3.36173 1.02922
thorax 0.778807 1.65641 3.12242
lowerneck -19.9973 -3.13607 3.62037
upperneck 46.1244 -9.29368 12.5906
head 25.2378 -0.00919067 4.85256
rclavicle -4.48259e-014 5.56597e-015
rhumerus 21.1101 48.9594 -69.9089
rradius 109.117
rwrist -34.2856
rhand -18.3874 35.4073
rfingers 7.12502
rthumb 7.89649 5.57475
lclavicle -4.48259e-014 5.56597e-015
lhumerus -5.14745 -25.6036 55.0605
lradius 130.99
lwrist 30.5008
lhand -17.2057 33.1614
lfingers 7.12502
lthumb 9.03689 782.948
rfemur -6.35009 34.2937 22.6278
rtibia 5.837
rfoot -3.35002 -57.0855
rtoes 5.0539
lfemur -19.8426 -26.4622 -7.1482
ltibia 21.343
lfoot -11.7347 24.7782
ltoes -25.9095
2050
root 4.34047 17.775 0.922424 47.8375 95.4212 39.7415
lowerback -0.579024 2.50133 -3.81333
upperback 0.729011 3.36984 1.04073
thorax 0.790882 1.65775 3.23793
lowerneck -19.9281 -3.09374 3.75852
upperneck 46.1052 -9.20258 12.405
head 25.1037 0.0233352 4.71376
rclavicle 9.0447e-015 9.54166e-015
rhumerus 22.0843 49.0896 -69.347
rradius 109.029
rwrist -34.5242
rhand -19.6161 35.0798
rfingers 7.12502
rthumb 6.71047 5.20617
lclavicle 9.0447e-015 9.54166e-015
lhumerus -4.79563 -26.2775 54.8629
lradius 130.864
lwrist 30.0175
lhand -17.1024 33.0253
lfingers 7.12502
lthumb 9.13656 782.807
rfemur -6.21932 34.3411 22.809
rtibia 5.59902
rfoot -2.38343 -57.0493
rtoes 4.03325
lfemur -19.77 -26.4903 -6.99308
ltibia 21.3389
lfoot -11.7432 24.8416
ltoes -25.6171
2051
root 4.32752 17.7747 0.939032 49.3042 95.4298 41.2935
lowerback -0.510162 2.50659 -4.18057
upperback 0.840477 3.37921 1.2192
thorax 0.834798 1.65708 3.62708
lowerneck -19.8466 -3.06101 3.67215
upperneck 46.1055 -9.03924 12.2522
head 25.0041 0.0391207 4.66539
rclavicle -1.74931e-014 1.19271e-014
rhumerus 23.0897 49.2937 -68.5742
rradius 108.98
rwrist -34.7232
rhand -20.5011 34.7842
rfingers 7.12502
rthumb 5.85604 4.88514
lclavicle -1.74931e-014 1.19271e-014
lhumerus -4.60183 -26.8171 54.9023
lradius 130.731
lwrist 29.3595
lhand -17.2 32.7375
lfingers 7.12502
lthumb 9.04234 782.524
rfemur -6.12321 34.4301 22.9842
rtibia 5.4018
rfoot -1.43562 -57.013
rtoes 2.92
lfemur -19.6776 -26.5817 -6.81257
ltibia 21.2977
lfoot -11.7658 25.0398
ltoes -25.3304
2052
root 4.31502 17.7752 0.953919 50.0863 95.4007 42.097
lowerback -0.460373 2.56327 -4.32593
upperback 0.90313 3.45563 1.16565
thorax 0.859184 1.69266 3.65272
lowerneck -19.7824 -3.05514 3.73444
upperneck 46.149 -9.02008 12.2223
head 25.0063 0.0563537 4.64526
rclavicle -2.27111e-014 -3.97569e-016
rhumerus 23.7736 49.2207 -68.296
rradius 108.876
rwrist -34.6825
rhand -21.3343 34.5336
rfingers 7.12502
rthumb 5.05159 4.61376
lclavicle -2.27111e-014 -3.97569e-016
lhumerus -4.0083 -27.5318 54.5121
lradius 130.431
lwrist 28.657
lhand -17.5193 32.4388
lfingers 7.12502
lthumb 8.73421 782.238
rfemur -6.10993 34.4922 23.0066
rtibia 5.17653
rfoot -0.611294 -57.0205
rtoes 2.35501
lfemur -19.6595 -26.6391 -6.69836
ltibia 21.2513
lfoot -11.7799 25.1438
ltoes -24.9834
